<svg xmlns="http://www.w3.org/2000/svg" viewBox="0 0 18 18"><defs><style>.cls-1{fill:#979797;}</style></defs><g id="图层_2" data-name="图层 2"><g id="图层_1-2" data-name="图层 1"><path class="cls-1" d="M15.25,0H2.75A2.75,2.75,0,0,0,0,2.75v12.5A2.75,2.75,0,0,0,2.75,18h12.5A2.75,2.75,0,0,0,18,15.25V2.75A2.75,2.75,0,0,0,15.25,0ZM16.5,15.25a1.25,1.25,0,0,1-1.25,1.25H2.75A1.25,1.25,0,0,1,1.5,15.25V2.75A1.25,1.25,0,0,1,2.75,1.5h12.5A1.25,1.25,0,0,1,16.5,2.75Z"/><path class="cls-1" d="M11.33,9.45H9.76V7.89a.85.85,0,0,0-1.7,0V9.45H6.5a.85.85,0,0,0,0,1.7H8.06v1.57a.85.85,0,0,0,1.7,0V11.15h1.57a.85.85,0,1,0,0-1.7Z"/><path class="cls-1" d="M12.26,3.74H5.43a.75.75,0,0,0,0,1.5h6.83a.75.75,0,0,0,0-1.5Z"/></g></g></svg>