<svg xmlns="http://www.w3.org/2000/svg" viewBox="0 0 18 18"><defs><style>.cls-1{fill:#0a51e6;}</style></defs><g id="图层_2" data-name="图层 2"><g id="图层_1-2" data-name="图层 1"><path class="cls-1" d="M16,0H2A2,2,0,0,0,0,2V16a2,2,0,0,0,2,2H16a2,2,0,0,0,2-2V2A2,2,0,0,0,16,0ZM9,12.67H8.52A8,8,0,0,0,7,13.6a.72.72,0,0,1-.4.12l-.18,0a.7.7,0,0,1-.5-.85A3.64,3.64,0,0,0,6.07,12,3.88,3.88,0,0,1,3.6,8.64c0-2.23,2.42-4,5.4-4s5.4,1.81,5.4,4S12,12.67,9,12.67Z"/><path class="cls-1" d="M10.55,8h-1v-1a.6.6,0,0,0-1.2,0V8h-1a.6.6,0,0,0,0,1.2h1v1a.6.6,0,1,0,1.2,0v-1h1a.6.6,0,1,0,0-1.2Z"/></g></g></svg>