<svg xmlns="http://www.w3.org/2000/svg" viewBox="0 0 18 18"><defs><style>.cls-1{fill:#979797;}</style></defs><g id="图层_2" data-name="图层 2"><g id="图层_1-2" data-name="图层 1"><path class="cls-1" d="M15.25,0H2.75A2.75,2.75,0,0,0,0,2.75v12.5A2.75,2.75,0,0,0,2.75,18h12.5A2.75,2.75,0,0,0,18,15.25V2.75A2.75,2.75,0,0,0,15.25,0ZM16.5,15.25a1.25,1.25,0,0,1-1.25,1.25H2.75A1.25,1.25,0,0,1,1.5,15.25V2.75A1.25,1.25,0,0,1,2.75,1.5h12.5A1.25,1.25,0,0,1,16.5,2.75Z"/><path class="cls-1" d="M9,4.4c-3.09,0-5.6,1.9-5.6,4.24a4,4,0,0,0,2.46,3.51,3.69,3.69,0,0,1-.13.65.91.91,0,0,0,.88,1.12.86.86,0,0,0,.51-.16c1.13-.78,1.42-.88,1.38-.89H9c3.09,0,5.6-1.9,5.6-4.23S12.09,4.4,9,4.4Zm0,7.27H8.6c-.25,0-.54,0-1.55.69.06-.48,0-1-.44-1.18a3,3,0,0,1-2-2.54c0-1.68,2-3,4.4-3s4.4,1.36,4.4,3S11.43,11.67,9,11.67Z"/><path class="cls-1" d="M10.55,8h-1v-1a.6.6,0,0,0-1.2,0V8h-1a.6.6,0,0,0,0,1.2h1v1a.6.6,0,1,0,1.2,0v-1h1a.6.6,0,1,0,0-1.2Z"/></g></g></svg>