<svg xmlns="http://www.w3.org/2000/svg" viewBox="0 0 18 18"><defs><style>.cls-1{fill:#0a51e6;}.cls-2{fill:none;}</style></defs><title>患者概览-1</title><g id="图层_2" data-name="图层 2"><g id="图层_1-2" data-name="图层 1"><path class="cls-1" d="M12.62,9A8.85,8.85,0,0,0,.32,17.16a.8.8,0,1,0,1.6,0A7.26,7.26,0,0,1,9.17,9.9a7.14,7.14,0,0,1,2.82.57A.8.8,0,1,0,12.62,9Z"/><path class="cls-1" d="M8.84,14.08h7.38a.8.8,0,0,0,0-1.6H8.84a.8.8,0,0,0,0,1.6Z"/><path class="cls-1" d="M16.22,15.31H8.84a.8.8,0,0,0,0,1.6h7.38a.8.8,0,0,0,0-1.6Z"/><rect class="cls-2" width="18" height="18"/><circle class="cls-1" cx="9" cy="5" r="4.8"/></g></g></svg>