<svg xmlns="http://www.w3.org/2000/svg" viewBox="0 0 18 18"><defs><style>.cls-1{fill:#979797;}.cls-2{fill:none;}</style></defs><title>患者概览_1</title><g id="图层_2" data-name="图层 2"><g id="图层_1-2" data-name="图层 1"><path class="cls-1" d="M9,1.6A3.4,3.4,0,1,1,5.6,5,3.41,3.41,0,0,1,9,1.6M9,.2A4.8,4.8,0,1,0,13.8,5,4.8,4.8,0,0,0,9,.2Z"/><path class="cls-1" d="M1.12,17.86a.7.7,0,0,1-.7-.7A8.76,8.76,0,0,1,9.17,8.4a8.66,8.66,0,0,1,3.41.69A.7.7,0,1,1,12,10.38,7.35,7.35,0,0,0,1.82,17.16.71.71,0,0,1,1.12,17.86Z"/><path class="cls-1" d="M16.22,14H8.84a.7.7,0,0,1,0-1.4h7.38a.7.7,0,1,1,0,1.4Z"/><path class="cls-1" d="M16.22,16.81H8.84a.7.7,0,0,1,0-1.4h7.38a.7.7,0,1,1,0,1.4Z"/><rect class="cls-2" width="18" height="18"/></g></g></svg>