<svg xmlns="http://www.w3.org/2000/svg" viewBox="0 0 18 18"><defs><style>.cls-1{fill:none;}.cls-2{fill:#979797;}</style></defs><title>首页-常规_1</title><g id="图层_2" data-name="图层 2"><g id="图层_1-2" data-name="图层 1"><rect class="cls-1" width="18" height="18"/><g id="_12-10" data-name="12-10"><path class="cls-2" d="M14.85,16.93H11.31a.7.7,0,0,1-.7-.7v-3.4h-3l0,3.39a.7.7,0,0,1-.2.5.67.67,0,0,1-.5.21H3.26a.69.69,0,0,1-.7-.69l-.05-6.09H.8A.69.69,0,0,1,.15,9.7a.68.68,0,0,1,.17-.76l8.2-7.68a.69.69,0,0,1,1,0l8.2,7.68a.68.68,0,0,1,.17.76.69.69,0,0,1-.65.45H15.5l.05,6.08a.74.74,0,0,1-.2.5A.7.7,0,0,1,14.85,16.93ZM12,15.53h2.14L14.1,9.45a.74.74,0,0,1,.2-.5.7.7,0,0,1,.5-.2h.63L9,2.73l-6.43,6H3.2a.69.69,0,0,1,.7.69L4,15.53H6.23l0-3.39a.66.66,0,0,1,.2-.5.71.71,0,0,1,.5-.21h4.42a.71.71,0,0,1,.7.7Z"/></g></g></g></svg>