<svg xmlns="http://www.w3.org/2000/svg" viewBox="0 0 18 18"><defs><style>.cls-1{fill:none;}.cls-2{fill:#979797;}</style></defs><title>检查-常规</title><g id="图层_2" data-name="图层 2"><g id="图层_1-2" data-name="图层 1"><rect class="cls-1" width="18" height="18"/><path class="cls-2" d="M17.7,16.12l-3.38-3.24a7.91,7.91,0,1,0-1.06,1.21l3.34,3.18a.78.78,0,0,0,.55.23.83.83,0,0,0,.58-.25A.8.8,0,0,0,17.7,16.12ZM7.9,14.61a6.27,6.27,0,1,1,4.77-2.21h0A6.23,6.23,0,0,1,7.9,14.61Z"/><path class="cls-2" d="M9.38,3.83a4.2,4.2,0,0,0-5,2,.51.51,0,0,0,.2.68.52.52,0,0,0,.24,0,.49.49,0,0,0,.44-.26A3.2,3.2,0,0,1,9.07,4.78a.51.51,0,0,0,.63-.32A.49.49,0,0,0,9.38,3.83Z"/></g></g></svg>