<svg xmlns="http://www.w3.org/2000/svg" viewBox="0 0 18 18"><defs><style>.cls-1{fill:none;}.cls-2{fill:#0a51e6;}</style></defs><title>检验-选中</title><g id="图层_2" data-name="图层 2"><g id="图层_1-2" data-name="图层 1"><rect class="cls-1" width="18" height="18"/><g id="_12-10" data-name="12-10"><path id="Fill-1-Copy-5" class="cls-2" d="M2,16.21,4.2,12.49h9.6L16,16.21Zm15.75.31-6-10.06V1.79h1.39a.65.65,0,1,0,0-1.29H11a.64.64,0,0,0-.64.64v5.5a.63.63,0,0,0,.09.33L13,11.2H5L7.51,7a.63.63,0,0,0,.09-.33V1.17A.65.65,0,0,0,7,.52h-2a.65.65,0,0,0,0,1.29h1.4V6.46l-6,10.06a.65.65,0,0,0,.55,1H17.17a.65.65,0,0,0,.55-1Z"/></g><polygon class="cls-2" points="4.03 11.53 0.97 16.84 16.81 16.84 13.75 11.53 4.03 11.53"/></g></g></svg>