<svg xmlns="http://www.w3.org/2000/svg" viewBox="0 0 17.63 17"><defs><style>.cls-1{fill:#979797;}</style></defs><title>检验-常规</title><g id="图层_2" data-name="图层 2"><g id="图层_1-2" data-name="图层 1"><g id="_12-10" data-name="12-10"><path id="Fill-1-Copy-5" class="cls-1" d="M1.78,15.71,4,12h9.59l2.24,3.72ZM17.54,16,11.5,6V1.29h1.4a.64.64,0,0,0,.64-.65A.64.64,0,0,0,12.9,0h-2a.65.65,0,0,0-.65.64v5.5a.63.63,0,0,0,.09.33l2.54,4.23h-8L7.33,6.47a.74.74,0,0,0,.09-.33V.67A.65.65,0,0,0,6.77,0h-2a.65.65,0,1,0,0,1.29h1.4V6L.09,16a.66.66,0,0,0,0,.65A.64.64,0,0,0,.64,17H17a.64.64,0,0,0,.56-.33A.66.66,0,0,0,17.54,16Z"/></g></g></g></svg>