<svg xmlns="http://www.w3.org/2000/svg" viewBox="0 0 18 18"><defs><style>.cls-1{fill:none;}.cls-2{fill:#979797;}</style></defs><title>更多-常规</title><g id="图层_2" data-name="图层 2"><g id="图层_1-2" data-name="图层 1"><rect class="cls-1" width="18" height="18"/><g id="_12-10" data-name="12-10"><g id="Group-3"><path class="cls-2" d="M17.19,2.32H10.42a.6.6,0,1,1,0-1.2h6.77a.6.6,0,1,1,0,1.2Z"/><path class="cls-2" d="M15.74,7H10.41a.6.6,0,0,1-.6-.6.6.6,0,0,1,.6-.6h5.33a.6.6,0,0,1,.6.6A.6.6,0,0,1,15.74,7Z"/><path class="cls-2" d="M6.42,8.05H1.76A1.57,1.57,0,0,1,.19,6.47V1.81A1.57,1.57,0,0,1,1.76.24H6.42A1.57,1.57,0,0,1,8,1.81V6.47A1.57,1.57,0,0,1,6.42,8.05ZM1.76,1.44a.38.38,0,0,0-.37.37V6.47a.38.38,0,0,0,.37.38H6.42a.37.37,0,0,0,.37-.38V1.81a.37.37,0,0,0-.37-.37Z"/><path class="cls-2" d="M6.42,17.76H1.76A1.57,1.57,0,0,1,.19,16.19V11.53A1.57,1.57,0,0,1,1.76,10H6.42A1.57,1.57,0,0,1,8,11.53v4.66A1.57,1.57,0,0,1,6.42,17.76ZM1.76,11.15a.38.38,0,0,0-.37.38v4.66a.38.38,0,0,0,.37.37H6.42a.37.37,0,0,0,.37-.37V11.53a.37.37,0,0,0-.37-.38Z"/><path class="cls-2" d="M16.14,17.76H11.47A1.58,1.58,0,0,1,9.9,16.19V11.53A1.58,1.58,0,0,1,11.47,10h4.67a1.58,1.58,0,0,1,1.57,1.58v4.66A1.58,1.58,0,0,1,16.14,17.76Zm-4.67-6.61a.38.38,0,0,0-.37.38v4.66a.38.38,0,0,0,.37.37h4.67a.38.38,0,0,0,.37-.37V11.53a.38.38,0,0,0-.37-.38Z"/></g></g></g></g></svg>