<svg xmlns="http://www.w3.org/2000/svg" viewBox="0 0 18 18"><defs><style>.cls-1{fill:none;}.cls-2{fill:#0a51e6;}</style></defs><title>更多-选中</title><g id="图层_2" data-name="图层 2"><g id="图层_1-2" data-name="图层 1"><rect class="cls-1" width="18" height="18"/><path class="cls-2" d="M10.42,2.32h6.77a.6.6,0,1,0,0-1.2H10.42a.6.6,0,1,0,0,1.2Z"/><path class="cls-2" d="M10.41,7h5.33a.6.6,0,0,0,.6-.6.6.6,0,0,0-.6-.6H10.41a.6.6,0,0,0-.6.6A.6.6,0,0,0,10.41,7Z"/><rect class="cls-2" x="0.19" y="0.24" width="7.81" height="7.8" rx="1.57" ry="1.57"/><rect class="cls-2" x="0.19" y="9.95" width="7.81" height="7.81" rx="1.57" ry="1.57"/><rect class="cls-2" x="9.9" y="9.95" width="7.8" height="7.81" rx="1.57" ry="1.57"/></g></g></svg>