<?xml version="1.0" encoding="UTF-8"?>
<svg width="25px" height="23px" viewBox="0 0 25 23" version="1.1" xmlns="http://www.w3.org/2000/svg" xmlns:xlink="http://www.w3.org/1999/xlink">
    <!-- Generator: Sketch 52.4 (67378) - http://www.bohemiancoding.com/sketch -->
    <title>分组</title>
    <desc>Created with Sketch.</desc>
    <g id="Page-1" stroke="none" stroke-width="1" fill="none" fill-rule="evenodd">
        <g id="患者首页-copy-8" transform="translate(-253.000000, -82.000000)" stroke="#3296FA" stroke-width="2">
            <g id="分组-3" transform="translate(238.000000, 64.000000)">
                <g id="分组" transform="translate(16.000000, 19.000000)">
                    <path d="M7.89034286,14.3370857 C7.89034286,16.2793714 6.31662857,17.8530857 4.37434286,17.8530857 C2.43205714,17.8530857 0.856628571,16.2793714 0.856628571,14.3370857 C0.856628571,12.3948 2.43205714,10.8193714 4.37434286,10.8193714 C6.31662857,10.8193714 7.89034286,12.3948 7.89034286,14.3370857 Z" id="Stroke-1"></path>
                    <path d="M17.8537714,4.3728 C17.8537714,6.3168 16.2783429,7.89051429 14.3360571,7.89051429 C12.3954857,7.89051429 10.8200571,6.3168 10.8200571,4.3728 C10.8200571,2.43051429 12.3954857,0.8568 14.3360571,0.8568 C16.2783429,0.8568 17.8537714,2.43051429 17.8537714,4.3728 Z" id="Stroke-3"></path>
                    <path d="M23.0082857,17.4207429 C23.0082857,19.3630286 21.4328571,20.9367429 19.4905714,20.9367429 C17.5482857,20.9367429 15.9745714,19.3630286 15.9745714,17.4207429 C15.9745714,15.4767429 17.5482857,13.9030286 19.4905714,13.9030286 C21.4328571,13.9030286 23.0082857,15.4767429 23.0082857,17.4207429 Z" id="Stroke-5"></path>
                    <path d="M5.98011429,11.8678286 L11.8961143,6.5004" id="Stroke-7"></path>
                    <path d="M7.84251429,15.2645143 L15.9750857,17.4210857" id="Stroke-9"></path>
                </g>
            </g>
        </g>
    </g>
</svg>