<?xml version="1.0" encoding="UTF-8"?>
<svg width="24px" height="22px" viewBox="0 0 24 22" version="1.1" xmlns="http://www.w3.org/2000/svg" xmlns:xlink="http://www.w3.org/1999/xlink">
    <!-- Generator: Sketch 52.4 (67378) - http://www.bohemiancoding.com/sketch -->
    <title>星形</title>
    <desc>Created with Sketch.</desc>
    <g id="Page-1" stroke="none" stroke-width="1" fill="none" fill-rule="evenodd">
        <g id="患者首页-copy-8" transform="translate(-254.000000, -133.000000)" stroke="#3296FA" stroke-width="2">
            <path d="M266,151 L260.740049,153.76532 C260.251205,154.022321 259.646577,153.834374 259.389577,153.34553 C259.287238,153.150869 259.251923,152.927901 259.2891,152.711143 L260.293661,146.854102 L256.038271,142.706122 C255.642788,142.320621 255.634695,141.687508 256.020197,141.292024 C256.173705,141.134541 256.374848,141.032053 256.592485,141.000429 L262.473288,140.145898 L265.103264,134.816986 C265.347686,134.321732 265.947312,134.118393 266.442566,134.362815 C266.639778,134.460146 266.799406,134.619773 266.896736,134.816986 L269.526712,140.145898 L275.407515,141.000429 C275.95406,141.079846 276.332742,141.587289 276.253324,142.133834 C276.2217,142.351471 276.119212,142.552614 275.961729,142.706122 L271.706339,146.854102 L272.7109,152.711143 C272.804261,153.25548 272.438674,153.772436 271.894337,153.865797 C271.677579,153.902974 271.454611,153.867659 271.259951,153.76532 L266,151 Z" id="星形"></path>
        </g>
    </g>
</svg>