<svg xmlns="http://www.w3.org/2000/svg" viewBox="0 0 17.81 15.81"><defs><style>.cls-1{fill:#0a51e6;}</style></defs><title>体征-选中</title><g id="图层_2" data-name="图层 2"><g id="图层_1-2" data-name="图层 1"><rect class="cls-1" x="0.77" y="7.56" width="1.83" height="8.25"/><rect class="cls-1" x="10.2" y="7.56" width="1.83" height="8.25"/><rect class="cls-1" x="5.48" y="6.38" width="1.83" height="9.43"/><rect class="cls-1" x="14.92" y="6.38" width="1.83" height="9.43"/><path class="cls-1" d="M17.8,1.43a.5.5,0,0,0,0-.21.88.88,0,0,0-.74-.81L14.39,0a.9.9,0,1,0-.27,1.78l.63.1L11.43,4.38,7,2.45a.87.87,0,0,0-.74,0L.52,5.13A.88.88,0,0,0,.09,6.32a.88.88,0,0,0,.81.52,1,1,0,0,0,.38-.08l5.33-2.5,4.58,2a.91.91,0,0,0,.9-.1l3.58-2.69L15.58,4a.9.9,0,0,0,.74,1,.91.91,0,0,0,1-.75l.44-2.77a.33.33,0,0,0,0-.1Z"/></g></g></svg>