<svg xmlns="http://www.w3.org/2000/svg" viewBox="0 0 18 18"><defs><style>.cls-1{fill:#979797;}.cls-2{fill:none;}</style></defs><title>体征-常规</title><g id="图层_2" data-name="图层 2"><g id="图层_1-2" data-name="图层 1"><rect class="cls-1" x="0.64" y="8.06" width="1.3" height="8.36"/><rect class="cls-1" x="10.19" y="8.06" width="1.3" height="8.36"/><rect class="cls-1" x="5.41" y="6.87" width="1.3" height="9.55"/><rect class="cls-1" x="14.96" y="6.87" width="1.3" height="9.55"/><path class="cls-1" d="M17.51,1.11l-.06,0a.75.75,0,0,0-.33-.14L14.37.63A.7.7,0,1,0,14.21,2l1.16.13L11.46,5.09l-4.65-2a.67.67,0,0,0-.57,0L.5,5.73A.7.7,0,0,0,.8,7.06.72.72,0,0,0,1.09,7L6.54,4.49l4.73,2.05a.7.7,0,0,0,.7-.08l4.1-3.09-.23,1.11a.71.71,0,0,0,.55.83.7.7,0,0,0,.82-.54l.61-2.93A.68.68,0,0,0,17.51,1.11Z"/><rect class="cls-2" width="18" height="18"/></g></g></svg>