<svg xmlns="http://www.w3.org/2000/svg" viewBox="0 0 18 16.2"><defs><style>.cls-1{fill:#979797;}</style></defs><g id="图层_2" data-name="图层 2"><g id="图层_1-2" data-name="图层 1"><path class="cls-1" d="M16,0H2A2,2,0,0,0,0,2v9a2,2,0,0,0,2,2h.8v2.34a.87.87,0,0,0,.5.78,1,1,0,0,0,.37.08A.89.89,0,0,0,4.21,16l3.64-3A.25.25,0,0,1,8,13h8a2,2,0,0,0,2-2V2A2,2,0,0,0,16,0Zm.5,11a.5.5,0,0,1-.5.5H8a1.72,1.72,0,0,0-1.07.38L4.3,14V11.5H2a.5.5,0,0,1-.5-.5V2A.5.5,0,0,1,2,1.5H16a.5.5,0,0,1,.5.5Z"/><path class="cls-1" d="M11.33,5.45H9.76V3.89a.85.85,0,1,0-1.7,0V5.45H6.5a.85.85,0,0,0,0,1.7H8.06V8.72a.85.85,0,0,0,1.7,0V7.15h1.57a.85.85,0,0,0,0-1.7Z"/></g></g></svg>