<svg xmlns="http://www.w3.org/2000/svg" viewBox="0 0 18 18"><defs><style>.cls-1{fill:#0a51e6;}</style></defs><g id="图层_2" data-name="图层 2"><g id="图层_1-2" data-name="图层 1"><path class="cls-1" d="M16,0H2A2,2,0,0,0,0,2v9L3.68,7.44a.88.88,0,0,1,1.22,0L8,10.53l3.36-3.32-.57.07a.88.88,0,0,1-1-.75.88.88,0,0,1,.75-1l3.13-.42h.19l.14,0a.85.85,0,0,1,.42.24.79.79,0,0,1,.12.15.83.83,0,0,1,.12.59L14.2,9.19a.91.91,0,0,1-.35.58.94.94,0,0,1-.65.16.91.91,0,0,1-.58-.35.94.94,0,0,1-.16-.65l.07-.45L8.6,12.38a.87.87,0,0,1-1.24,0L4.27,9.3,0,13.37V16a2,2,0,0,0,2,2H16a2,2,0,0,0,2-2V2A2,2,0,0,0,16,0Z"/></g></g></svg>