<svg xmlns="http://www.w3.org/2000/svg" viewBox="0 0 18 18"><defs><style>.cls-1{fill:#979797;}</style></defs><g id="图层_2" data-name="图层 2"><g id="图层_1-2" data-name="图层 1"><path class="cls-1" d="M15.25,18H2.75A2.75,2.75,0,0,1,0,15.25V2.75A2.75,2.75,0,0,1,2.75,0h12.5A2.75,2.75,0,0,1,18,2.75v12.5A2.75,2.75,0,0,1,15.25,18ZM2.75,1.5A1.25,1.25,0,0,0,1.5,2.75v12.5A1.25,1.25,0,0,0,2.75,16.5h12.5a1.25,1.25,0,0,0,1.25-1.25V2.75A1.25,1.25,0,0,0,15.25,1.5Z"/><path class="cls-1" d="M14.54,5.54a.79.79,0,0,0-.12-.15A.85.85,0,0,0,14,5.15l-.14,0h-.19l-3.13.41a.89.89,0,0,0-.75,1,.88.88,0,0,0,1,.75l.57-.07L8,10.53,4.9,7.45a.88.88,0,0,0-1.22,0L.4,10.58a.87.87,0,0,0,0,1.24.88.88,0,0,0,.61.27.89.89,0,0,0,.62-.24L4.27,9.3l3.09,3.08a.91.91,0,0,0,.62.26.87.87,0,0,0,.62-.26l3.93-3.9-.07.45a.94.94,0,0,0,.16.65.91.91,0,0,0,.58.35.94.94,0,0,0,.65-.16.91.91,0,0,0,.35-.58l.46-3.06A.83.83,0,0,0,14.54,5.54Z"/></g></g></svg>