<svg xmlns="http://www.w3.org/2000/svg" viewBox="0 0 18 17.91"><defs><style>.cls-1{fill:#0a51e6;}</style></defs><g id="图层_2" data-name="图层 2"><g id="图层_1-2" data-name="图层 1"><path class="cls-1" d="M16,1.91H14.31V.75a.75.75,0,0,0-1.5,0V1.91H5.31V.75a.75.75,0,0,0-1.5,0V1.91H2a2,2,0,0,0-2,2v12a2,2,0,0,0,2,2H16a2,2,0,0,0,2-2v-12A2,2,0,0,0,16,1.91Zm-1.54,8.93h-.91l-1.14,2.68a.77.77,0,0,1-.64.45h0a.75.75,0,0,1-.64-.35l-3-4.8L6.76,11a.73.73,0,0,1-.63.35H3.79a.75.75,0,1,1,0-1.5H5.71L7.44,7a.76.76,0,0,1,.64-.36h0A.73.73,0,0,1,8.71,7l2.88,4.6.78-1.82a.76.76,0,0,1,.69-.45h1.4a.75.75,0,0,1,0,1.5Z"/></g></g></svg>