<svg xmlns="http://www.w3.org/2000/svg" viewBox="0 0 18 17.91"><defs><style>.cls-1{fill:#979797;}</style></defs><g id="图层_2" data-name="图层 2"><g id="图层_1-2" data-name="图层 1"><path class="cls-1" d="M16,1.91H14.31V.75a.75.75,0,0,0-1.5,0V1.91H5.31V.75a.75.75,0,0,0-1.5,0V1.91H2a2,2,0,0,0-2,2v12a2,2,0,0,0,2,2H16a2,2,0,0,0,2-2v-12A2,2,0,0,0,16,1.91Zm.5,14a.5.5,0,0,1-.5.5H2a.5.5,0,0,1-.5-.5v-12a.5.5,0,0,1,.5-.5H3.81v.46a.75.75,0,1,0,1.5,0V3.41h7.5v.46a.75.75,0,0,0,1.5,0V3.41H16a.5.5,0,0,1,.5.5Z"/><path class="cls-1" d="M14.46,9.34h-1.4a.76.76,0,0,0-.69.45l-.78,1.82L8.71,7a.73.73,0,0,0-.63-.36h0A.76.76,0,0,0,7.44,7L5.71,9.8H3.79a.75.75,0,1,0,0,1.5H6.13A.73.73,0,0,0,6.76,11L8.08,8.82l3,4.8a.75.75,0,0,0,.64.35h0a.77.77,0,0,0,.64-.45l1.14-2.68h.91a.75.75,0,0,0,0-1.5Z"/></g></g></svg>